<svg xmlns="http://www.w3.org/2000/svg" width="16" height="20" viewBox="0 0 16 20"><g><g><g><path fill="#0f53fa" d="M3.6 11H.4c-.22 0-.4.202-.4.45v8.1c0 .248.18.45.4.45h3.2c.22 0 .4-.202.4-.45v-8.1c0-.248-.18-.45-.4-.45z"/></g><g><path fill="#0f53fa" d="M15.899 6.68L10.36.154a.497.497 0 0 0-.721 0L4.1 6.679a.415.415 0 0 0-.056.46c.077.151.24.247.417.247h3.23v12.179c0 .24.207.435.462.435h3.692c.255 0 .462-.195.462-.435V7.386h3.23c.178 0 .34-.096.416-.246a.415.415 0 0 0-.055-.46z"/></g></g></g></svg>