<svg xmlns="http://www.w3.org/2000/svg" width="26" height="18" viewBox="0 0 26 18"><g><g opacity=".3"><g opacity=".3"><path fill="#0f53fa" d="M17.906 8.82l-3.776-.18 1.555-1.406A3.969 3.969 0 0 0 13 6.188 3.95 3.95 0 0 0 9.168 9.14a.565.565 0 0 1-1.095-.281A5.08 5.08 0 0 1 13 5.063a5.1 5.1 0 0 1 3.52 1.415l1.566-1.415zm.021 2.57A5.082 5.082 0 0 1 13 15.188a5.115 5.115 0 0 1-3.52-1.416l-1.566 1.416.18-3.757 3.776.18-1.55 1.401A3.976 3.976 0 0 0 13 14.063a3.951 3.951 0 0 0 3.832-2.954c.078-.3.39-.48.688-.404a.563.563 0 0 1 .407.686zm3.474-3.492C20.85 3.43 17.007 0 12.435 0 7.743 0 3.868 3.554 3.44 8.162A5.05 5.05 0 0 0 0 12.937C0 15.73 2.282 18 5.087 18h15.826C23.718 18 26 15.729 26 12.937c0-2.627-2.022-4.794-4.6-5.039z"/></g></g></g></svg>