<svg xmlns="http://www.w3.org/2000/svg" width="24" height="20" viewBox="0 0 24 20"><g><g><g><path fill="#0f53fa" d="M13.462 15.5H8.578C8.312 13.53 6.5 12 4.308 12 1.933 12 0 13.794 0 16c0 2.205 1.933 4 4.308 4 2.192 0 4.004-1.53 4.27-3.5h4.884c.297 0 .538-.224.538-.5 0-.277-.24-.5-.538-.5z"/></g><g><path fill="#0f53fa" d="M19.79 11.989a4.35 4.35 0 0 0-1.764.374l-2.054-3.128a.541.541 0 0 0-.725-.158.487.487 0 0 0-.167.69l2.053 3.125c-.946.735-1.551 1.852-1.551 3.102 0 2.209 1.888 4.006 4.209 4.006C22.11 20 24 18.203 24 15.994c0-2.208-1.888-4.005-4.21-4.005z"/></g><g><path fill="#0f53fa" d="M11.765 0C9.43 0 7.53 1.811 7.53 4.037c0 1.26.609 2.386 1.56 3.126l-2.01 3.065a.491.491 0 0 0 .168.695.543.543 0 0 0 .28.077.535.535 0 0 0 .45-.237l2.011-3.067c.541.24 1.141.378 1.776.378C14.1 8.074 16 6.263 16 4.037S14.1 0 11.765 0z"/></g></g></g></svg>