<svg xmlns="http://www.w3.org/2000/svg" width="20" height="20" viewBox="0 0 20 20"><g><g><g><path fill="#0f53fa" d="M16.353 12.63c-.904 0-1.775.342-2.443.96l-3.477-3.015V8a4.426 4.426 0 0 1-.91 0v2.575L6.045 13.59a3.592 3.592 0 0 0-4.957.103 3.693 3.693 0 0 0-.211 5.01 3.593 3.593 0 0 0 4.93.529 3.69 3.69 0 0 0 .833-4.943l3.337-2.894 3.336 2.893a3.718 3.718 0 0 0 .355 4.516 3.614 3.614 0 0 0 4.416.756 3.7 3.7 0 0 0 1.804-4.147 3.651 3.651 0 0 0-3.536-2.782z"/></g><g><path fill="#0f53fa" d="M13.125 3.5a2.625 2.625 0 1 1-5.25 0 2.625 2.625 0 0 1 5.25 0zM10.5 7a3.5 3.5 0 1 0 0-7 3.5 3.5 0 0 0 0 7z"/></g></g></g></svg>